<svg width="100%" height="100%" viewBox="0 0 352 36" version="1.1" xmlns="http://www.w3.org/2000/svg"
  xmlns:xlink="http://www.w3.org/1999/xlink" xml:space="preserve" xmlns:serif="http://www.serif.com/"
  style="fill-rule:evenodd;clip-rule:evenodd;stroke-linejoin:round;stroke-miterlimit:2;">
  <rect id="Artboard1" x="0" y="0" width="351.432" height="35.851" style="fill:none;"> </rect>
  <g>
    <rect x="229.523" y="8.013" width="0.766" height="21.465" style="fill:#2c2d2c;fill-rule:nonzero;"> </rect>
    <path
      d="M244.912,24.368l0.784,-0c0.143,-0 0.238,-0.095 0.285,-0.262l3.281,-9.603c0.047,-0.119 0.071,-0.237 0.095,-0.356c0.024,-0.119 0.071,-0.238 0.095,-0.357c0.024,0.119 0.047,0.238 0.071,0.357c0.024,0.119 0.071,0.237 0.119,0.356l3.233,9.603c0.047,0.167 0.142,0.262 0.285,0.262l0.832,-0l3.946,-11.838l-0.832,0c-0.214,0 -0.333,0.095 -0.404,0.286l-2.995,9.341c-0.072,0.19 -0.119,0.357 -0.143,0.523c-0.047,0.166 -0.071,0.333 -0.095,0.499c-0.071,-0.333 -0.166,-0.665 -0.285,-1.022l-3.138,-9.413c-0.047,-0.166 -0.166,-0.261 -0.333,-0.261l-0.475,-0c-0.166,-0 -0.285,0.095 -0.333,0.261l-3.161,9.413c-0.072,0.19 -0.119,0.357 -0.167,0.523c-0.047,0.166 -0.095,0.333 -0.142,0.499c-0.024,-0.166 -0.072,-0.333 -0.095,-0.499c-0.024,-0.166 -0.072,-0.333 -0.119,-0.523l-2.995,-9.341c-0.024,-0.072 -0.071,-0.143 -0.143,-0.191c-0.071,-0.071 -0.166,-0.095 -0.261,-0.095l-0.88,0l3.97,11.838Z"
      style="fill:#231f20;fill-rule:nonzero;"> </path>
    <path
      d="M262.239,12.792c-0.665,0.285 -1.236,0.689 -1.687,1.212c-0.452,0.523 -0.809,1.141 -1.046,1.854c-0.238,0.713 -0.357,1.498 -0.357,2.353c0,0.999 0.143,1.902 0.404,2.686c0.262,0.785 0.618,1.45 1.094,1.973c0.475,0.547 1.069,0.951 1.735,1.236c0.665,0.286 1.402,0.428 2.211,0.428c0.427,0 0.879,-0.047 1.307,-0.142c0.452,-0.072 0.856,-0.191 1.236,-0.333c0.38,-0.143 0.737,-0.333 1.046,-0.547c0.309,-0.19 0.57,-0.428 0.76,-0.666l-0.309,-0.38c-0.047,-0.071 -0.142,-0.119 -0.237,-0.119c-0.072,0 -0.214,0.072 -0.381,0.214c-0.166,0.119 -0.404,0.262 -0.713,0.428c-0.285,0.166 -0.665,0.309 -1.093,0.452c-0.428,0.119 -0.951,0.19 -1.545,0.19c-0.666,-0 -1.26,-0.119 -1.807,-0.357c-0.546,-0.214 -0.998,-0.57 -1.378,-1.022c-0.381,-0.451 -0.666,-1.022 -0.88,-1.687c-0.214,-0.666 -0.309,-1.45 -0.309,-2.354l0,-0.214l8.534,0c0.095,0 0.19,-0.023 0.237,-0.095c0.048,-0.071 0.072,-0.19 0.072,-0.356c-0,-0.832 -0.119,-1.569 -0.357,-2.211c-0.238,-0.665 -0.547,-1.188 -0.975,-1.64c-0.404,-0.452 -0.903,-0.784 -1.473,-0.998c-0.571,-0.238 -1.165,-0.357 -1.831,-0.357c-0.855,0 -1.592,0.143 -2.258,0.452Zm3.732,0.689c0.452,0.19 0.832,0.452 1.141,0.785c0.309,0.356 0.571,0.784 0.737,1.283c0.166,0.499 0.261,1.07 0.261,1.712l-7.772,-0c0.071,-0.618 0.214,-1.189 0.428,-1.688c0.214,-0.499 0.499,-0.927 0.855,-1.284c0.357,-0.356 0.761,-0.618 1.26,-0.808c0.476,-0.19 1.022,-0.285 1.616,-0.285c0.547,-0 1.046,0.095 1.474,0.285Z"
      style="fill:#231f20;fill-rule:nonzero;"> </path>
    <path
      d="M272.888,24.368c0.19,-0 0.309,-0.095 0.333,-0.285l0.071,-1.45c0.428,0.618 0.927,1.093 1.522,1.426c0.594,0.309 1.307,0.475 2.139,0.475c0.808,0 1.545,-0.166 2.187,-0.475c0.642,-0.309 1.164,-0.761 1.616,-1.308c0.428,-0.546 0.761,-1.212 0.998,-1.949c0.214,-0.76 0.333,-1.569 0.333,-2.424c0,-2.021 -0.404,-3.518 -1.212,-4.54c-0.808,-0.999 -1.949,-1.498 -3.399,-1.498c-0.856,0 -1.64,0.214 -2.33,0.618c-0.689,0.404 -1.283,0.951 -1.806,1.64l-0,-7.535l-1.141,0l-0,17.305l0.689,-0Zm7.084,-9.889c0.641,0.832 0.974,2.14 0.974,3.899c0,0.76 -0.095,1.473 -0.261,2.139c-0.19,0.642 -0.452,1.189 -0.808,1.664c-0.357,0.452 -0.785,0.808 -1.308,1.07c-0.523,0.261 -1.141,0.38 -1.83,0.38c-0.713,-0 -1.355,-0.143 -1.902,-0.404c-0.546,-0.285 -1.046,-0.761 -1.497,-1.45l-0,-6.228c0.499,-0.737 1.069,-1.283 1.711,-1.688c0.618,-0.404 1.331,-0.618 2.116,-0.618c1.212,0 2.163,0.405 2.805,1.236Z"
      style="fill:#231f20;fill-rule:nonzero;"> </path>
    <path
      d="M298.464,24.368l-0,-17.305l-1.141,0l-0,7.012c-0.428,-0.57 -0.927,-0.998 -1.521,-1.283c-0.595,-0.309 -1.284,-0.452 -2.068,-0.452c-0.832,0 -1.569,0.167 -2.211,0.476c-0.642,0.309 -1.165,0.76 -1.616,1.307c-0.428,0.547 -0.761,1.188 -0.999,1.949c-0.214,0.737 -0.332,1.545 -0.332,2.425c-0,1.996 0.404,3.518 1.212,4.516c0.808,1.022 1.949,1.521 3.399,1.521c0.856,0 1.64,-0.214 2.353,-0.642c0.69,-0.404 1.308,-0.974 1.83,-1.687l0.119,1.854c0.024,0.214 0.143,0.309 0.357,0.309l0.618,-0Zm-7.773,-1.997c-0.642,-0.832 -0.974,-2.115 -0.974,-3.874c-0,-0.785 0.095,-1.498 0.261,-2.14c0.19,-0.641 0.452,-1.188 0.808,-1.664c0.357,-0.451 0.785,-0.808 1.308,-1.069c0.523,-0.262 1.141,-0.381 1.83,-0.381c0.713,0 1.331,0.143 1.878,0.405c0.546,0.285 1.069,0.76 1.521,1.426l-0,6.251c-0.499,0.713 -1.07,1.284 -1.712,1.688c-0.618,0.404 -1.331,0.594 -2.115,0.594c-1.212,0 -2.163,-0.404 -2.805,-1.236Z"
      style="fill:#231f20;fill-rule:nonzero;"> </path>
    <path
      d="M304.549,12.792c-0.666,0.285 -1.236,0.689 -1.688,1.212c-0.451,0.523 -0.808,1.141 -1.046,1.854c-0.237,0.713 -0.356,1.498 -0.356,2.353c-0,0.999 0.143,1.902 0.404,2.686c0.261,0.785 0.618,1.45 1.093,1.973c0.476,0.547 1.07,0.951 1.736,1.236c0.665,0.286 1.402,0.428 2.21,0.428c0.428,0 0.88,-0.047 1.308,-0.142c0.451,-0.072 0.855,-0.191 1.236,-0.333c0.38,-0.143 0.736,-0.333 1.045,-0.547c0.309,-0.19 0.571,-0.428 0.761,-0.666l-0.309,-0.38c-0.047,-0.071 -0.143,-0.119 -0.238,-0.119c-0.071,0 -0.214,0.072 -0.38,0.214c-0.166,0.119 -0.404,0.262 -0.713,0.428c-0.285,0.166 -0.666,0.309 -1.093,0.452c-0.428,0.119 -0.951,0.19 -1.545,0.19c-0.666,-0 -1.26,-0.119 -1.807,-0.357c-0.547,-0.214 -0.998,-0.57 -1.379,-1.022c-0.38,-0.451 -0.665,-1.022 -0.879,-1.687c-0.214,-0.666 -0.309,-1.45 -0.309,-2.354l-0,-0.214l8.533,0c0.095,0 0.19,-0.023 0.238,-0.095c0.048,-0.071 0.071,-0.19 0.071,-0.356c0,-0.832 -0.119,-1.569 -0.356,-2.211c-0.238,-0.665 -0.547,-1.188 -0.975,-1.64c-0.404,-0.452 -0.903,-0.784 -1.474,-0.998c-0.57,-0.238 -1.164,-0.357 -1.83,-0.357c-0.856,0 -1.592,0.143 -2.258,0.452Zm3.732,0.689c0.451,0.19 0.832,0.452 1.141,0.785c0.309,0.356 0.57,0.784 0.737,1.283c0.166,0.499 0.261,1.07 0.261,1.712l-7.773,-0c0.072,-0.618 0.214,-1.189 0.428,-1.688c0.214,-0.499 0.499,-0.927 0.856,-1.284c0.357,-0.356 0.761,-0.618 1.26,-0.808c0.475,-0.19 1.022,-0.285 1.616,-0.285c0.547,-0 1.046,0.095 1.474,0.285Z"
      style="fill:#231f20;fill-rule:nonzero;"> </path>
    <path
      d="M321.164,13.6c-0.475,-0.428 -0.974,-0.737 -1.545,-0.951c-0.547,-0.214 -1.188,-0.309 -1.901,-0.309c-0.618,0 -1.165,0.095 -1.641,0.262c-0.475,0.166 -0.903,0.404 -1.236,0.713c-0.332,0.285 -0.594,0.618 -0.76,1.022c-0.19,0.38 -0.286,0.784 -0.286,1.212c0,0.476 0.096,0.903 0.286,1.212c0.19,0.333 0.428,0.618 0.737,0.856c0.309,0.214 0.665,0.404 1.045,0.571c0.405,0.142 0.809,0.285 1.213,0.404c0.404,0.142 0.808,0.261 1.212,0.38c0.38,0.143 0.737,0.285 1.046,0.475c0.309,0.167 0.547,0.404 0.737,0.666c0.19,0.261 0.285,0.594 0.285,0.975c-0,0.356 -0.071,0.713 -0.19,1.022c-0.143,0.332 -0.333,0.594 -0.571,0.832c-0.261,0.237 -0.57,0.427 -0.95,0.57c-0.381,0.143 -0.809,0.214 -1.308,0.214c-0.523,-0 -0.974,-0.071 -1.331,-0.19c-0.356,-0.119 -0.665,-0.262 -0.903,-0.404c-0.238,-0.143 -0.428,-0.286 -0.571,-0.428c-0.142,-0.119 -0.285,-0.19 -0.38,-0.19c-0.095,-0 -0.166,0.023 -0.214,0.047c-0.047,0.048 -0.071,0.095 -0.119,0.143l-0.261,0.404c0.451,0.428 0.998,0.784 1.592,1.046c0.595,0.261 1.308,0.404 2.14,0.404c0.665,-0 1.236,-0.095 1.759,-0.285c0.523,-0.19 0.95,-0.452 1.283,-0.785c0.357,-0.309 0.642,-0.689 0.808,-1.141c0.191,-0.451 0.286,-0.927 0.286,-1.45c-0,-0.475 -0.095,-0.879 -0.286,-1.212c-0.19,-0.333 -0.427,-0.618 -0.736,-0.832c-0.309,-0.238 -0.666,-0.428 -1.046,-0.594c-0.404,-0.143 -0.809,-0.285 -1.213,-0.404c-0.404,-0.143 -0.808,-0.262 -1.212,-0.381c-0.38,-0.142 -0.737,-0.285 -1.046,-0.451c-0.309,-0.19 -0.546,-0.404 -0.737,-0.642c-0.19,-0.238 -0.285,-0.547 -0.285,-0.927c0,-0.309 0.071,-0.594 0.214,-0.856c0.143,-0.285 0.333,-0.523 0.571,-0.713c0.261,-0.214 0.546,-0.38 0.903,-0.499c0.356,-0.119 0.76,-0.19 1.188,-0.19c0.476,-0 0.856,0.047 1.189,0.143c0.333,0.095 0.618,0.213 0.832,0.332c0.237,0.119 0.404,0.238 0.546,0.333c0.143,0.095 0.262,0.143 0.357,0.143c0.119,-0 0.19,-0.048 0.261,-0.167l0.238,-0.38Z"
      style="fill:#231f20;fill-rule:nonzero;"> </path>
    <path
      d="M324.848,12.53l0,11.838l1.141,-0l0,-11.838l-1.141,0Zm1.546,-4.492c-0.048,-0.119 -0.143,-0.238 -0.238,-0.333c-0.095,-0.095 -0.19,-0.166 -0.333,-0.238c-0.119,-0.047 -0.261,-0.071 -0.404,-0.071c-0.143,0 -0.261,0.024 -0.404,0.071c-0.119,0.072 -0.238,0.143 -0.333,0.238c-0.095,0.095 -0.166,0.214 -0.214,0.333c-0.071,0.142 -0.095,0.261 -0.095,0.404c0,0.143 0.024,0.285 0.095,0.404c0.048,0.119 0.119,0.238 0.214,0.333c0.095,0.095 0.214,0.166 0.333,0.214c0.143,0.071 0.261,0.095 0.404,0.095c0.143,-0 0.285,-0.024 0.404,-0.095c0.143,-0.048 0.238,-0.119 0.333,-0.214c0.095,-0.095 0.19,-0.214 0.238,-0.333c0.071,-0.119 0.095,-0.261 0.095,-0.404c-0,-0.143 -0.024,-0.262 -0.095,-0.404Z"
      style="fill:#231f20;fill-rule:nonzero;"> </path>
    <path
      d="M332.229,12.625c-0.523,0.167 -0.975,0.428 -1.331,0.761c-0.381,0.333 -0.666,0.737 -0.856,1.189c-0.214,0.475 -0.309,0.998 -0.309,1.568c-0,0.713 0.166,1.331 0.475,1.878c0.309,0.547 0.761,0.975 1.331,1.308c-0.237,0.118 -0.451,0.261 -0.641,0.427c-0.167,0.143 -0.333,0.309 -0.452,0.5c-0.119,0.166 -0.214,0.356 -0.285,0.546c-0.072,0.167 -0.095,0.357 -0.095,0.523c-0,0.452 0.118,0.808 0.356,1.046c0.238,0.262 0.547,0.452 0.951,0.594c-0.737,0.238 -1.307,0.595 -1.711,1.046c-0.405,0.452 -0.618,0.999 -0.618,1.617c-0,0.427 0.118,0.832 0.332,1.212c0.214,0.38 0.523,0.713 0.951,0.998c0.428,0.285 0.951,0.523 1.569,0.689c0.618,0.167 1.355,0.262 2.187,0.262c0.808,-0 1.545,-0.095 2.21,-0.309c0.666,-0.214 1.213,-0.499 1.688,-0.856c0.452,-0.333 0.808,-0.737 1.07,-1.188c0.237,-0.452 0.356,-0.927 0.356,-1.426c0,-0.523 -0.119,-0.951 -0.356,-1.26c-0.238,-0.333 -0.547,-0.571 -0.951,-0.761c-0.38,-0.166 -0.832,-0.309 -1.331,-0.38c-0.499,-0.072 -1.022,-0.119 -1.522,-0.143c-0.522,-0.024 -1.045,-0.047 -1.545,-0.071c-0.499,-0.024 -0.95,-0.071 -1.331,-0.167c-0.404,-0.071 -0.713,-0.213 -0.95,-0.404c-0.238,-0.166 -0.357,-0.427 -0.357,-0.784c-0,-0.238 0.095,-0.499 0.285,-0.761c0.19,-0.261 0.452,-0.475 0.785,-0.665c0.546,0.214 1.164,0.309 1.854,0.309c0.618,-0 1.188,-0.095 1.687,-0.285c0.523,-0.167 0.951,-0.428 1.331,-0.761c0.357,-0.333 0.642,-0.713 0.856,-1.189c0.214,-0.451 0.309,-0.974 0.309,-1.545c0,-0.427 -0.071,-0.832 -0.19,-1.212c-0.119,-0.38 -0.285,-0.713 -0.499,-1.022l1.783,-0.119c0.237,-0.024 0.332,-0.119 0.332,-0.333l0,-0.38l-3.018,0c-0.357,-0.238 -0.761,-0.404 -1.189,-0.547c-0.428,-0.119 -0.927,-0.19 -1.426,-0.19c-0.642,0 -1.212,0.095 -1.735,0.285Zm5.8,13.644c-0.214,0.357 -0.523,0.642 -0.904,0.88c-0.38,0.261 -0.832,0.451 -1.355,0.57c-0.499,0.143 -1.069,0.214 -1.664,0.214c-0.665,0 -1.236,-0.071 -1.735,-0.19c-0.499,-0.119 -0.903,-0.309 -1.26,-0.523c-0.332,-0.214 -0.594,-0.475 -0.784,-0.76c-0.166,-0.31 -0.261,-0.619 -0.261,-0.975c-0,-0.285 0.047,-0.523 0.142,-0.761c0.119,-0.237 0.262,-0.451 0.428,-0.641c0.19,-0.191 0.404,-0.381 0.666,-0.523c0.261,-0.167 0.546,-0.309 0.832,-0.428c0.404,0.071 0.855,0.119 1.307,0.142c0.475,0.024 0.927,0.048 1.402,0.072c0.452,0.023 0.904,0.071 1.331,0.118c0.428,0.048 0.785,0.143 1.118,0.262c0.332,0.143 0.594,0.309 0.784,0.547c0.19,0.214 0.285,0.523 0.285,0.879c0,0.404 -0.119,0.785 -0.332,1.117Zm-5.42,-7.345c-0.38,-0.142 -0.713,-0.356 -0.998,-0.618c-0.262,-0.261 -0.476,-0.57 -0.618,-0.927c-0.143,-0.38 -0.214,-0.784 -0.214,-1.212c-0,-0.451 0.071,-0.856 0.214,-1.212c0.142,-0.38 0.356,-0.689 0.618,-0.951c0.285,-0.261 0.618,-0.475 0.998,-0.618c0.404,-0.143 0.856,-0.214 1.355,-0.214c0.499,0 0.927,0.071 1.331,0.214c0.38,0.143 0.713,0.357 0.998,0.618c0.262,0.262 0.476,0.571 0.618,0.951c0.143,0.356 0.214,0.761 0.214,1.212c0,0.428 -0.071,0.832 -0.214,1.212c-0.142,0.357 -0.332,0.666 -0.594,0.927c-0.285,0.262 -0.618,0.476 -0.998,0.618c-0.404,0.143 -0.856,0.214 -1.355,0.214c-0.499,0 -0.951,-0.071 -1.355,-0.214Z"
      style="fill:#231f20;fill-rule:nonzero;"> </path>
    <path
      d="M343.103,24.368l0,-8.866c0.523,-0.714 1.117,-1.26 1.783,-1.664c0.665,-0.404 1.378,-0.595 2.139,-0.595c1.046,0 1.83,0.309 2.33,0.951c0.499,0.618 0.76,1.498 0.76,2.615l0,7.559l1.141,-0l0,-7.559c0,-0.689 -0.071,-1.307 -0.238,-1.854c-0.166,-0.547 -0.427,-1.022 -0.736,-1.403c-0.333,-0.404 -0.737,-0.689 -1.236,-0.903c-0.5,-0.214 -1.07,-0.309 -1.712,-0.309c-0.879,0 -1.688,0.214 -2.401,0.618c-0.713,0.428 -1.331,0.975 -1.878,1.664l-0.095,-1.783c-0.023,-0.214 -0.142,-0.309 -0.356,-0.309l-0.642,0l0,11.838l1.141,-0Z"
      style="fill:#231f20;fill-rule:nonzero;"> </path>
    <path d="M11.74,35.533l-0.014,-31.308l-11.489,-0.001l0,-3.871l27.558,0l0,3.871l-11.699,0.001l0.014,31.308l-4.37,0Z"
      style="fill:#af2322;fill-rule:nonzero;"> </path>
    <path
      d="M200.81,35.59l-0.007,-31.447l-11.468,-0.001l-0,-3.881l27.508,0l-0,3.881l-11.678,0.001l0.008,31.447l-4.363,0Z"
      style="fill:#af2322;fill-rule:nonzero;"> </path>
    <path
      d="M48.584,4.184c-3.708,0 -6.883,1.343 -9.434,3.992c-2.543,2.642 -3.833,5.889 -3.833,9.649c0,3.762 1.29,7.008 3.833,9.649c2.551,2.649 5.724,3.993 9.434,3.993c3.709,-0 6.882,-1.344 9.433,-3.993c2.544,-2.642 3.834,-5.889 3.834,-9.649c-0,-3.759 -1.29,-7.005 -3.834,-9.649c-2.551,-2.649 -5.726,-3.992 -9.433,-3.992Zm-0,31.205c-5.026,-0 -9.301,-1.693 -12.707,-5.03c-3.402,-3.332 -5.128,-7.549 -5.128,-12.534c0,-4.984 1.726,-9.201 5.128,-12.534c3.406,-3.338 7.681,-5.03 12.707,-5.03c5.024,0 9.3,1.692 12.708,5.03c3.401,3.333 5.126,7.551 5.126,12.534c0,4.984 -1.725,9.201 -5.126,12.534c-3.408,3.337 -7.684,5.03 -12.708,5.03Z"
      style="fill:#af2322;fill-rule:nonzero;"> </path>
    <path
      d="M90.034,4.186c-3.717,0 -6.899,1.344 -9.457,3.995c-2.55,2.643 -3.843,5.892 -3.843,9.655c0,3.763 1.293,7.012 3.843,9.654c2.557,2.651 5.738,3.995 9.457,3.995c3.718,-0 6.899,-1.344 9.456,-3.995c2.551,-2.644 3.844,-5.892 3.844,-9.654c-0,-3.762 -1.293,-7.01 -3.844,-9.655c-2.557,-2.651 -5.739,-3.995 -9.456,-3.995Zm-0,31.223c-5.038,0 -9.324,-1.693 -12.738,-5.033c-3.412,-3.334 -5.141,-7.553 -5.141,-12.54c0,-4.988 1.729,-9.208 5.141,-12.542c3.414,-3.34 7.7,-5.033 12.738,-5.033c5.037,0 9.323,1.693 12.739,5.033c3.41,3.335 5.139,7.555 5.139,12.542c-0,4.986 -1.729,9.205 -5.139,12.54c-3.416,3.34 -7.702,5.033 -12.739,5.033Z"
      style="fill:#af2322;fill-rule:nonzero;"> </path>
    <path d="M116.169,35.409l-0,-35.148l4.371,0l-0.008,31.082l15.94,0l-0,4.066l-20.303,0Z"
      style="fill:#af2322;fill-rule:nonzero;"> </path>
    <rect x="143.138" y="0.353" width="4.363" height="35.18" style="fill:#af2322;fill-rule:nonzero;"> </rect>
    <path d="M178.517,0.261l0,35.272l4.364,0l-0,-35.272l-4.364,0Z" style="fill:#af2322;fill-rule:nonzero;"> </path>
    <path d="M149.811,17.891l14.618,-17.537l5.869,0l-14.526,17.462l15.072,17.734l-6.091,-0.017l-14.942,-17.642Z"
      style="fill:#af2322;fill-rule:nonzero;"> </path>
  </g>
</svg>